<?xml version="1.0" encoding="UTF-8"?>
<svg width="240px" height="70px" viewBox="0 0 240 70" version="1.1" xmlns="http://www.w3.org/2000/svg" xmlns:xlink="http://www.w3.org/1999/xlink">
    <!-- Generator: Sketch 63.1 (92452) - https://sketch.com -->
    <title>Artboard Copy</title>
    <desc>Created with Sketch.</desc>
    <g id="Artboard-Copy" stroke="none" stroke-width="1" fill="none" fill-rule="evenodd">
        <path d="M37.1605577,22 L37.1605577,15.6365 L41.3405577,22 L42.5230577,22 L42.5230577,13.86 L41.4230577,13.86 L41.4230577,20.2235 L37.2430577,13.86 L36.0605577,13.86 L36.0605577,22 L37.1605577,22 Z M45.9529423,18.733 C46.671609,18.733 47.2316923,18.5221667 47.6331923,18.1005 C48.0346923,17.6788333 48.2354423,17.061 48.2354423,16.247 C48.2354423,15.433 48.0346923,14.817 47.6331923,14.399 C47.2316923,13.981 46.671609,13.772 45.9529423,13.772 C45.2342756,13.772 44.675109,13.9791667 44.2754423,14.3935 C43.8757756,14.8078333 43.6759423,15.4256667 43.6759423,16.247 C43.6759423,17.0646667 43.8757756,17.6834167 44.2754423,18.10325 C44.675109,18.5230833 45.2342756,18.733 45.9529423,18.733 Z M45.9529423,17.908 C45.5642756,17.908 45.266359,17.7805833 45.0591923,17.52575 C44.8520256,17.2709167 44.7484423,16.8446667 44.7484423,16.247 C44.7484423,15.6493333 44.8520256,15.224 45.0591923,14.971 C45.266359,14.718 45.5642756,14.5915 45.9529423,14.5915 C46.3452756,14.5915 46.6450256,14.718 46.8521923,14.971 C47.059359,15.224 47.1629423,15.6493333 47.1629423,16.247 C47.1629423,16.8446667 47.0584423,17.2709167 46.8494423,17.52575 C46.6404423,17.7805833 46.341609,17.908 45.9529423,17.908 Z M54.0337115,22.0715 C55.5223782,22.0715 56.6324615,21.7378333 57.3639615,21.0705 C58.0954615,20.4031667 58.4612115,19.3563333 58.4612115,17.93 C58.4612115,16.5256667 58.1110449,15.4825 57.4107115,14.8005 C56.7103782,14.1185 55.6635449,13.7775 54.2702115,13.7775 C53.9035449,13.7775 53.5231282,13.7976667 53.1289615,13.838 C52.7347949,13.8783333 52.3617115,13.9351667 52.0097115,14.0085 L52.0097115,14.0085 L52.0097115,21.9505 C52.6843782,22.0311667 53.3590449,22.0715 54.0337115,22.0715 Z M54.2977115,21.098 C53.8723782,21.098 53.4983782,21.0778333 53.1757115,21.0375 L53.1757115,21.0375 L53.1757115,14.8445 C53.5973782,14.7785 53.9842115,14.7455 54.3362115,14.7455 C55.3262115,14.7455 56.0613782,14.9985 56.5417115,15.5045 C57.0220449,16.0105 57.2622115,16.8171667 57.2622115,17.9245 C57.2622115,18.6761667 57.1531282,19.2848333 56.9349615,19.7505 C56.7167949,20.2161667 56.3904615,20.5571667 55.9559615,20.7735 C55.5214615,20.9898333 54.9687115,21.098 54.2977115,21.098 Z M65.0755962,22 L65.0755962,21.0375 L60.9340962,21.0375 L60.9340962,18.3095 L64.4760962,18.3095 L64.4760962,17.347 L60.9340962,17.347 L60.9340962,14.8225 L65.0205962,14.8225 L65.0205962,13.86 L59.7845962,13.86 L59.7845962,22 L65.0755962,22 Z M70.0543654,22 L70.0543654,19.3875 C70.3733654,19.4131667 70.7015321,19.426 71.0388654,19.426 C73.3305321,19.426 74.4763654,18.4818333 74.4763654,16.5935 C74.4763654,15.6291667 74.1949487,14.9178333 73.6321154,14.4595 C73.0692821,14.0011667 72.2231987,13.772 71.0938654,13.772 C70.3751987,13.772 69.6400321,13.8453333 68.8883654,13.992 L68.8883654,13.992 L68.8883654,22 L70.0543654,22 Z M71.0608654,18.513 C70.7125321,18.513 70.3770321,18.491 70.0543654,18.447 L70.0543654,18.447 L70.0543654,14.7785 C70.4100321,14.7161667 70.7876987,14.685 71.1873654,14.685 C71.9170321,14.685 72.4569487,14.839 72.8071154,15.147 C73.1572821,15.455 73.3323654,15.9426667 73.3323654,16.61 C73.3323654,17.2663333 73.1517821,17.7475833 72.7906154,18.05375 C72.4294487,18.3599167 71.8528654,18.513 71.0608654,18.513 Z M80.81025,22 L80.81025,21.0045 L76.88875,21.0045 L76.88875,13.86 L75.72275,13.86 L75.72275,22 L80.81025,22 Z M82.0676346,22 L82.9146346,19.5085 L86.2311346,19.5085 L87.0781346,22 L88.2441346,22 L85.4116346,13.86 L83.7451346,13.86 L80.9181346,22 L82.0676346,22 Z M85.9011346,18.546 L83.2391346,18.546 L84.5701346,14.6355 L85.9011346,18.546 Z M90.2605192,22 L90.2605192,15.6365 L94.4405192,22 L95.6230192,22 L95.6230192,13.86 L94.5230192,13.86 L94.5230192,20.2235 L90.3430192,13.86 L89.1605192,13.86 L89.1605192,22 L90.2605192,22 Z M100.312404,22 L100.312404,14.8555 L102.979904,14.8555 L102.979904,13.86 L96.4789038,13.86 L96.4789038,14.8555 L99.1464038,14.8555 L99.1464038,22 L100.312404,22 Z M103.362788,22 L104.209788,19.5085 L107.526288,19.5085 L108.373288,22 L109.539288,22 L106.706788,13.86 L105.040288,13.86 L102.213288,22 L103.362788,22 Z M107.196288,18.546 L104.534288,18.546 L105.865288,14.6355 L107.196288,18.546 Z M111.990173,22.1045 C112.624506,22.1045 113.167173,22.011 113.618173,21.824 C114.069173,21.637 114.412923,21.3656667 114.649423,21.01 C114.885923,20.6543333 115.004173,20.229 115.004173,19.734 C115.004173,19.1363333 114.825423,18.6550833 114.467923,18.29025 C114.110423,17.9254167 113.548506,17.6458333 112.782173,17.4515 L112.782173,17.4515 L112.292673,17.325 C111.948006,17.2333333 111.676673,17.1315833 111.478673,17.01975 C111.280673,16.9079167 111.13859,16.77225 111.052423,16.61275 C110.966256,16.45325 110.923173,16.2543333 110.923173,16.016 C110.923173,15.1543333 111.566673,14.7235 112.853673,14.7235 C113.480673,14.7235 114.07284,14.8078333 114.630173,14.9765 L114.630173,14.9765 L114.630173,14.003 C114.373506,13.9223333 114.087506,13.8609167 113.772173,13.81875 C113.45684,13.7765833 113.134173,13.7555 112.804173,13.7555 C112.13684,13.7555 111.57584,13.8480833 111.121173,14.03325 C110.666506,14.2184167 110.325506,14.48425 110.098173,14.83075 C109.87084,15.17725 109.757173,15.5943333 109.757173,16.082 C109.757173,16.676 109.930423,17.1554167 110.276923,17.52025 C110.623423,17.8850833 111.148673,18.1573333 111.852673,18.337 L111.852673,18.337 L112.347673,18.4635 C112.721673,18.5625 113.015006,18.6688333 113.227673,18.7825 C113.44034,18.8961667 113.595256,19.0345833 113.692423,19.19775 C113.78959,19.3609167 113.838173,19.5653333 113.838173,19.811 C113.838173,20.6946667 113.224006,21.1365 111.995673,21.1365 C111.665673,21.1365 111.319173,21.1071667 110.956173,21.0485 C110.593173,20.9898333 110.243006,20.9036667 109.905673,20.79 L109.905673,20.79 L109.905673,21.769 C110.224673,21.879 110.564756,21.9624167 110.925923,22.01925 C111.28709,22.0760833 111.64184,22.1045 111.990173,22.1045 Z M120.527442,22.1045 C121.161776,22.1045 121.704442,22.011 122.155442,21.824 C122.606442,21.637 122.950192,21.3656667 123.186692,21.01 C123.423192,20.6543333 123.541442,20.229 123.541442,19.734 C123.541442,19.1363333 123.362692,18.6550833 123.005192,18.29025 C122.647692,17.9254167 122.085776,17.6458333 121.319442,17.4515 L121.319442,17.4515 L120.829942,17.325 C120.485276,17.2333333 120.213942,17.1315833 120.015942,17.01975 C119.817942,16.9079167 119.675859,16.77225 119.589692,16.61275 C119.503526,16.45325 119.460442,16.2543333 119.460442,16.016 C119.460442,15.1543333 120.103942,14.7235 121.390942,14.7235 C122.017942,14.7235 122.610109,14.8078333 123.167442,14.9765 L123.167442,14.9765 L123.167442,14.003 C122.910776,13.9223333 122.624776,13.8609167 122.309442,13.81875 C121.994109,13.7765833 121.671442,13.7555 121.341442,13.7555 C120.674109,13.7555 120.113109,13.8480833 119.658442,14.03325 C119.203776,14.2184167 118.862776,14.48425 118.635442,14.83075 C118.408109,15.17725 118.294442,15.5943333 118.294442,16.082 C118.294442,16.676 118.467692,17.1554167 118.814192,17.52025 C119.160692,17.8850833 119.685942,18.1573333 120.389942,18.337 L120.389942,18.337 L120.884942,18.4635 C121.258942,18.5625 121.552276,18.6688333 121.764942,18.7825 C121.977609,18.8961667 122.132526,19.0345833 122.229692,19.19775 C122.326859,19.3609167 122.375442,19.5653333 122.375442,19.811 C122.375442,20.6946667 121.761276,21.1365 120.532942,21.1365 C120.202942,21.1365 119.856442,21.1071667 119.493442,21.0485 C119.130442,20.9898333 118.780276,20.9036667 118.442942,20.79 L118.442942,20.79 L118.442942,21.769 C118.761942,21.879 119.102026,21.9624167 119.463192,22.01925 C119.824359,22.0760833 120.179109,22.1045 120.527442,22.1045 Z M127.889827,22.1045 C128.608494,22.1045 129.229994,21.956 129.754327,21.659 C130.27866,21.362 130.684744,20.90275 130.972577,20.28125 C131.26041,19.65975 131.404327,18.876 131.404327,17.93 C131.404327,16.984 131.261327,16.20025 130.975327,15.57875 C130.689327,14.95725 130.28416,14.498 129.759827,14.201 C129.235494,13.904 128.61216,13.7555 127.889827,13.7555 C127.17116,13.7555 126.54966,13.904 126.025327,14.201 C125.500994,14.498 125.09491,14.95725 124.807077,15.57875 C124.519244,16.20025 124.375327,16.984 124.375327,17.93 C124.375327,18.876 124.518327,19.65975 124.804327,20.28125 C125.090327,20.90275 125.495494,21.362 126.019827,21.659 C126.54416,21.956 127.167494,22.1045 127.889827,22.1045 Z M127.889827,21.131 C127.145494,21.131 126.573494,20.878 126.173827,20.372 C125.77416,19.866 125.574327,19.041 125.574327,17.897 C125.574327,16.7823333 125.775077,15.9756667 126.176577,15.477 C126.578077,14.9783333 127.14916,14.729 127.889827,14.729 C128.630494,14.729 129.201577,14.9829167 129.603077,15.49075 C130.004577,15.9985833 130.205327,16.8226667 130.205327,17.963 C130.205327,19.074 130.005494,19.87975 129.605827,20.38025 C129.20616,20.88075 128.63416,21.131 127.889827,21.131 Z M134.834212,22.077 C135.717878,22.077 136.432878,21.9899167 136.979212,21.81575 C137.525545,21.6415833 137.923378,21.384 138.172712,21.043 C138.422045,20.702 138.546712,20.2766667 138.546712,19.767 C138.546712,19.2316667 138.408295,18.7953333 138.131462,18.458 C137.854628,18.1206667 137.450378,17.9006667 136.918712,17.798 C137.384378,17.6806667 137.733628,17.45975 137.966462,17.13525 C138.199295,16.81075 138.315712,16.4211667 138.315712,15.9665 C138.315712,15.2221667 138.057212,14.6703333 137.540212,14.311 C137.023212,13.9516667 136.205545,13.772 135.087212,13.772 C134.287878,13.772 133.503212,13.8508333 132.733212,14.0085 L132.733212,14.0085 L132.733212,21.9395 C133.459212,22.0311667 134.159545,22.077 134.834212,22.077 Z M135.345712,17.3745 L133.871712,17.3745 L133.871712,14.773 C134.271378,14.6996667 134.718712,14.663 135.213712,14.663 C135.697712,14.663 136.085462,14.70975 136.376962,14.80325 C136.668462,14.89675 136.880212,15.0415833 137.012212,15.23775 C137.144212,15.4339167 137.210212,15.6951667 137.210212,16.0215 C137.210212,16.4835 137.064462,16.8245 136.772962,17.0445 C136.481462,17.2645 136.005712,17.3745 135.345712,17.3745 L135.345712,17.3745 Z M135.103712,21.186 C134.638045,21.186 134.227378,21.1621667 133.871712,21.1145 L133.871712,21.1145 L133.871712,18.2875 L135.505212,18.2875 C136.179878,18.2875 136.673045,18.403 136.984712,18.634 C137.296378,18.865 137.452212,19.228 137.452212,19.723 C137.452212,20.0603333 137.378878,20.3353333 137.232212,20.548 C137.085545,20.7606667 136.840795,20.9201667 136.497962,21.0265 C136.155128,21.1328333 135.690378,21.186 135.103712,21.186 Z M140.838096,22 L140.838096,18.7165 C141.241429,18.7421667 141.593429,18.755 141.894096,18.755 C142.044429,18.755 142.156263,18.7531667 142.229596,18.7495 L142.229596,18.7495 L144.616596,22 L145.903596,22 L143.373596,18.5845 C143.993263,18.4231667 144.464429,18.1454167 144.787096,17.75125 C145.109763,17.3570833 145.269263,16.8538333 145.265596,16.2415 C145.265596,15.3981667 144.995179,14.77575 144.454346,14.37425 C143.913513,13.97275 143.087596,13.772 141.976596,13.772 C141.235929,13.772 140.475096,13.8508333 139.694096,14.0085 L139.694096,14.0085 L139.694096,22 L140.838096,22 Z M141.910596,17.8475 C141.587929,17.8475 141.230429,17.831 140.838096,17.798 L140.838096,17.798 L140.838096,14.7785 C141.050763,14.7418333 141.251513,14.7143333 141.440346,14.696 C141.629179,14.6776667 141.840929,14.6685 142.075596,14.6685 C142.563263,14.6685 142.960179,14.7225833 143.266346,14.83075 C143.572513,14.9389167 143.798929,15.1094167 143.945596,15.34225 C144.092263,15.5750833 144.165596,15.8785 144.165596,16.2525 C144.165596,16.8025 143.985013,17.2058333 143.623846,17.4625 C143.262679,17.7191667 142.691596,17.8475 141.910596,17.8475 Z M152.209981,22 L152.209981,21.0375 L148.068481,21.0375 L148.068481,18.3095 L151.610481,18.3095 L151.610481,17.347 L148.068481,17.347 L148.068481,14.8225 L152.154981,14.8225 L152.154981,13.86 L146.918981,13.86 L146.918981,22 L152.209981,22 Z M157.16675,22 L157.16675,18.7165 C157.570083,18.7421667 157.922083,18.755 158.22275,18.755 C158.373083,18.755 158.484917,18.7531667 158.55825,18.7495 L158.55825,18.7495 L160.94525,22 L162.23225,22 L159.70225,18.5845 C160.321917,18.4231667 160.793083,18.1454167 161.11575,17.75125 C161.438417,17.3570833 161.597917,16.8538333 161.59425,16.2415 C161.59425,15.3981667 161.323833,14.77575 160.783,14.37425 C160.242167,13.97275 159.41625,13.772 158.30525,13.772 C157.564583,13.772 156.80375,13.8508333 156.02275,14.0085 L156.02275,14.0085 L156.02275,22 L157.16675,22 Z M158.23925,17.8475 C157.916583,17.8475 157.559083,17.831 157.16675,17.798 L157.16675,17.798 L157.16675,14.7785 C157.379417,14.7418333 157.580167,14.7143333 157.769,14.696 C157.957833,14.6776667 158.169583,14.6685 158.40425,14.6685 C158.891917,14.6685 159.288833,14.7225833 159.595,14.83075 C159.901167,14.9389167 160.127583,15.1094167 160.27425,15.34225 C160.420917,15.5750833 160.49425,15.8785 160.49425,16.2525 C160.49425,16.8025 160.313667,17.2058333 159.9525,17.4625 C159.591333,17.7191667 159.02025,17.8475 158.23925,17.8475 Z M163.220135,22 L164.067135,19.5085 L167.383635,19.5085 L168.230635,22 L169.396635,22 L166.564135,13.86 L164.897635,13.86 L162.070635,22 L163.220135,22 Z M167.053635,18.546 L164.391635,18.546 L165.722635,14.6355 L167.053635,18.546 Z M171.847519,22.1045 C172.481853,22.1045 173.024519,22.011 173.475519,21.824 C173.926519,21.637 174.270269,21.3656667 174.506769,21.01 C174.743269,20.6543333 174.861519,20.229 174.861519,19.734 C174.861519,19.1363333 174.682769,18.6550833 174.325269,18.29025 C173.967769,17.9254167 173.405853,17.6458333 172.639519,17.4515 L172.639519,17.4515 L172.150019,17.325 C171.805353,17.2333333 171.534019,17.1315833 171.336019,17.01975 C171.138019,16.9079167 170.995936,16.77225 170.909769,16.61275 C170.823603,16.45325 170.780519,16.2543333 170.780519,16.016 C170.780519,15.1543333 171.424019,14.7235 172.711019,14.7235 C173.338019,14.7235 173.930186,14.8078333 174.487519,14.9765 L174.487519,14.9765 L174.487519,14.003 C174.230853,13.9223333 173.944853,13.8609167 173.629519,13.81875 C173.314186,13.7765833 172.991519,13.7555 172.661519,13.7555 C171.994186,13.7555 171.433186,13.8480833 170.978519,14.03325 C170.523853,14.2184167 170.182853,14.48425 169.955519,14.83075 C169.728186,15.17725 169.614519,15.5943333 169.614519,16.082 C169.614519,16.676 169.787769,17.1554167 170.134269,17.52025 C170.480769,17.8850833 171.006019,18.1573333 171.710019,18.337 L171.710019,18.337 L172.205019,18.4635 C172.579019,18.5625 172.872353,18.6688333 173.085019,18.7825 C173.297686,18.8961667 173.452603,19.0345833 173.549769,19.19775 C173.646936,19.3609167 173.695519,19.5653333 173.695519,19.811 C173.695519,20.6946667 173.081353,21.1365 171.853019,21.1365 C171.523019,21.1365 171.176519,21.1071667 170.813519,21.0485 C170.450519,20.9898333 170.100353,20.9036667 169.763019,20.79 L169.763019,20.79 L169.763019,21.769 C170.082019,21.879 170.422103,21.9624167 170.783269,22.01925 C171.144436,22.0760833 171.499186,22.1045 171.847519,22.1045 Z M176.432404,22 L177.279404,19.5085 L180.595904,19.5085 L181.442904,22 L182.608904,22 L179.776404,13.86 L178.109904,13.86 L175.282904,22 L176.432404,22 Z M180.265904,18.546 L177.603904,18.546 L178.934904,14.6355 L180.265904,18.546 Z M184.625288,22 L184.625288,15.6365 L188.805288,22 L189.987788,22 L189.987788,13.86 L188.887788,13.86 L188.887788,20.2235 L184.707788,13.86 L183.525288,13.86 L183.525288,22 L184.625288,22 Z M194.677173,22 L194.677173,14.8555 L197.344673,14.8555 L197.344673,13.86 L190.843673,13.86 L190.843673,14.8555 L193.511173,14.8555 L193.511173,22 L194.677173,22 Z M203.491558,22 L203.491558,21.0375 L199.350058,21.0375 L199.350058,18.3095 L202.892058,18.3095 L202.892058,17.347 L199.350058,17.347 L199.350058,14.8225 L203.436558,14.8225 L203.436558,13.86 L198.200558,13.86 L198.200558,22 L203.491558,22 Z" id="NºDEPLANTASSOBRERASANTE" fill="#000000" fill-rule="nonzero"></path>
        <polygon id="1" fill="#276419" fill-rule="nonzero" points="36.7083077 66 36.7083077 57.8325 35.9658077 57.8325 33.5898077 59.521 33.5898077 60.6375 35.5423077 59.257 35.5423077 66"></polygon>
        <path d="M71.4703077,66.1045 C72.467641,66.1045 73.223891,65.9019167 73.7390577,65.49675 C74.2542244,65.0915833 74.5118077,64.5186667 74.5118077,63.778 C74.5118077,63.2426667 74.3642244,62.8035833 74.0690577,62.46075 C73.773891,62.1179167 73.347641,61.8878333 72.7903077,61.7705 C73.248641,61.6275 73.606141,61.3900833 73.8628077,61.05825 C74.1194744,60.7264167 74.2478077,60.3258333 74.2478077,59.8565 C74.2478077,59.1818333 74.0177244,58.663 73.5575577,58.3 C73.097391,57.937 72.429141,57.7555 71.5528077,57.7555 C71.2264744,57.7555 70.8928077,57.7820833 70.5518077,57.83525 C70.2108077,57.8884167 69.9083077,57.9608333 69.6443077,58.0525 L69.6443077,58.0525 L69.6443077,58.971 C70.2163077,58.7656667 70.8158077,58.663 71.4428077,58.663 C72.0038077,58.663 72.4245577,58.7720833 72.7050577,58.99025 C72.9855577,59.2084167 73.1258077,59.5265 73.1258077,59.9445 C73.1258077,60.4065 72.9562244,60.7594167 72.6170577,61.00325 C72.277891,61.2470833 71.769141,61.369 71.0908077,61.369 L71.0908077,61.369 L70.4418077,61.369 L70.4418077,62.2875 L71.4813077,62.2875 C72.7609744,62.2875 73.4008077,62.7641667 73.4008077,63.7175 C73.4008077,64.2051667 73.2385577,64.5736667 72.9140577,64.823 C72.5895577,65.0723333 72.0973077,65.197 71.4373077,65.197 C71.1219744,65.197 70.792891,65.1704167 70.4500577,65.11725 C70.1072244,65.0640833 69.7799744,64.988 69.4683077,64.889 L69.4683077,64.889 L69.4683077,65.802 C70.091641,66.0036667 70.7589744,66.1045 71.4703077,66.1045 Z" id="3" fill="#7FBC41" fill-rule="nonzero"></path>
        <path d="M109.588558,66.1045 C110.582224,66.1045 111.336641,65.8964167 111.851808,65.48025 C112.366974,65.0640833 112.624558,64.4563333 112.624558,63.657 C112.624558,63.1473333 112.510891,62.7229167 112.283558,62.38375 C112.056224,62.0445833 111.698724,61.7796667 111.211058,61.589 C110.723391,61.3983333 110.089058,61.2791667 109.308058,61.2315 L109.308058,61.2315 L109.022058,61.215 L109.187058,58.7895 L112.294558,58.7895 L112.294558,57.86 L108.147558,57.86 L107.872558,62.073 L108.884558,62.1335 C109.551891,62.1701667 110.076224,62.2480833 110.457558,62.36725 C110.838891,62.4864167 111.110224,62.6523333 111.271558,62.865 C111.432891,63.0776667 111.513558,63.3508333 111.513558,63.6845 C111.513558,64.1868333 111.353141,64.5626667 111.032308,64.812 C110.711474,65.0613333 110.221058,65.186 109.561058,65.186 C109.242058,65.186 108.911141,65.1594167 108.568308,65.10625 C108.225474,65.0530833 107.896391,64.977 107.581058,64.878 L107.581058,64.878 L107.581058,65.791 C108.219058,66 108.888224,66.1045 109.588558,66.1045 Z" id="5" fill="#BCCAA7" fill-rule="nonzero"></path>
        <polygon id="7" fill="#F1B6DA" fill-rule="nonzero" points="148.492308 66 151.374308 58.4925 151.374308 57.86 146.457308 57.86 146.457308 58.8445 150.103808 58.8445 147.293308 66"></polygon>
        <path d="M185.538558,66.1045 C186.711891,66.1045 187.604724,65.7396667 188.217058,65.01 C188.829391,64.2803333 189.135558,63.1675 189.135558,61.6715 C189.135558,60.3148333 188.877058,59.323 188.360058,58.696 C187.843058,58.069 187.122558,57.7555 186.198558,57.7555 C185.685224,57.7555 185.233308,57.8499167 184.842808,58.03875 C184.452308,58.2275833 184.149808,58.50625 183.935308,58.87475 C183.720808,59.24325 183.613558,59.6878333 183.613558,60.2085 C183.613558,60.7401667 183.719891,61.18475 183.932558,61.54225 C184.145224,61.89975 184.442224,62.1665 184.823558,62.3425 C185.204891,62.5185 185.648558,62.6065 186.154558,62.6065 C186.499224,62.6065 186.834724,62.557 187.161058,62.458 C187.487391,62.359 187.766058,62.2215 187.997058,62.0455 C187.986058,63.1271667 187.774308,63.9191667 187.361808,64.4215 C186.949308,64.9238333 186.326891,65.175 185.494558,65.175 C184.926224,65.175 184.427558,65.0925 183.998558,64.9275 L183.998558,64.9275 L183.998558,65.8625 C184.405558,66.0238333 184.918891,66.1045 185.538558,66.1045 Z M186.358058,61.7265 C185.830058,61.7265 185.419391,61.5990833 185.126058,61.34425 C184.832724,61.0894167 184.686058,60.6998333 184.686058,60.1755 C184.686058,59.6621667 184.822641,59.2780833 185.095808,59.02325 C185.368974,58.7684167 185.732891,58.641 186.187558,58.641 C186.554224,58.641 186.865891,58.72075 187.122558,58.88025 C187.379224,59.03975 187.582724,59.3055833 187.733058,59.67775 C187.883391,60.0499167 187.969558,60.5495 187.991558,61.1765 C187.771558,61.3598333 187.516724,61.4973333 187.227058,61.589 C186.937391,61.6806667 186.647724,61.7265 186.358058,61.7265 Z" id="9" fill="#C51B7D" fill-rule="nonzero"></path>
        <g id="Group" transform="translate(1.000000, 40.000000)" fill="#276419" fill-rule="nonzero">
            <g id="Group-3-Copy">
                <polygon id="Path-6-Copy-2" points="-0.266996496 5.57725555 9.5 -0.591373817 19.2669965 5.57725555 18.7330035 6.42274445 9.5 0.59 0.266996496 6.42274445"></polygon>
                <polygon id="Path-6-Copy-4" points="17.5 0 17.5 5 16.5 5 16.5 0"></polygon>
            </g>
            <polygon id="Rectangle-Copy-85" points="11 5 11 6 8 6 8 5"></polygon>
            <polygon id="Rectangle-Copy-7" points="17 8 17 9 2 9 2 8"></polygon>
            <polygon id="Rectangle-Copy-9" points="17 11 17 12 2 12 2 11"></polygon>
        </g>
        <g id="Group-11" transform="translate(25.000000, 37.000000)">
            <polygon id="Fill-1" fill="#276419" points="0 15 18.9 15 18.9 0 0 0"></polygon>
            <polygon id="Fill-2" fill="#4D9221" points="18.9 15 37.8 15 37.8 0 18.9 0"></polygon>
            <polygon id="Fill-3" fill="#7FBC41" points="37.8 15 56.7 15 56.7 0 37.8 0"></polygon>
            <polygon id="Fill-4" fill="#B8E186" points="56.7 15 75.6 15 75.6 0 56.7 0"></polygon>
            <polygon id="Fill-5" fill="#E6F5D0" points="75.6 15 94.5 15 94.5 0 75.6 0"></polygon>
            <polygon id="Fill-6" fill="#FDE0EF" points="94.5 15 113.4 15 113.4 0 94.5 0"></polygon>
            <polygon id="Fill-7" fill="#F1B6DA" points="113.4 15 132.3 15 132.3 0 113.4 0"></polygon>
            <polygon id="Fill-8" fill="#DE77AE" points="132.3 15 151.2 15 151.2 0 132.3 0"></polygon>
            <polygon id="Fill-9" fill="#C51B7D" points="151.2 15 170.1 15 170.1 0 151.2 0"></polygon>
            <polygon id="Fill-10" fill="#8E0152" points="170.1 15 189 15 189 0 170.1 0"></polygon>
        </g>
        <rect id="Rectangle" fill="#8E0152" x="220" y="51" width="14" height="1"></rect>
        <rect id="Rectangle-Copy" fill="#8E0152" x="220" y="48" width="19" height="1"></rect>
        <rect id="Rectangle-Copy-6" fill="#8E0152" x="220" y="33" width="19" height="1"></rect>
        <rect id="Rectangle-Copy-8" fill="#8E0152" x="220" y="27" width="19" height="1"></rect>
        <rect id="Rectangle-Copy-3" fill="#8E0152" x="220" y="42" width="19" height="1"></rect>
        <rect id="Rectangle-Copy-45" fill="#8E0152" x="220" y="30" width="2" height="1"></rect>
        <rect id="Rectangle-Copy-62" fill="#8E0152" x="220" y="45" width="2" height="1"></rect>
        <rect id="Rectangle-Copy-58" fill="#8E0152" x="220" y="39" width="2" height="1"></rect>
        <rect id="Rectangle-Copy-55" fill="#8E0152" x="220" y="36" width="2" height="1"></rect>
        <rect id="Rectangle-Copy-52" fill="#8E0152" x="224" y="30" width="4" height="1"></rect>
        <rect id="Rectangle-Copy-65" fill="#8E0152" x="224" y="21" width="11" height="1"></rect>
        <rect id="Rectangle-Copy-66" fill="#8E0152" x="228" y="18" width="3" height="1"></rect>
        <rect id="Rectangle-Copy-63" fill="#8E0152" x="224" y="45" width="4" height="1"></rect>
        <rect id="Rectangle-Copy-59" fill="#8E0152" x="227" y="39" width="5" height="1"></rect>
        <rect id="Rectangle-Copy-56" fill="#8E0152" x="223" y="36" width="9" height="1"></rect>
        <rect id="Rectangle-Copy-53" fill="#8E0152" x="231" y="30" width="6" height="1"></rect>
        <rect id="Rectangle-Copy-64" fill="#8E0152" x="231" y="45" width="8" height="1"></rect>
        <rect id="Rectangle-Copy-61" fill="#8E0152" x="237" y="39" width="2" height="1"></rect>
        <rect id="Rectangle-Copy-67" fill="#8E0152" x="236" y="51" width="3" height="1"></rect>
        <rect id="Rectangle-Copy-60" fill="#8E0152" x="231" y="39" width="6" height="1"></rect>
        <rect id="Rectangle-Copy-57" fill="#8E0152" x="236" y="36" width="3" height="1"></rect>
        <rect id="Rectangle-Copy-54" fill="#8E0152" x="237" y="30" width="2" height="1"></rect>
        <rect id="Rectangle-Copy-44" fill="#8E0152" x="220" y="24" width="19" height="1"></rect>
    </g>
</svg>